<svg version="1.0" xmlns="http://www.w3.org/2000/svg" width="745.33333" height="1196" viewBox="0 0 559 897"><path d="M293 1.1c-34.4 1.6-62.3 8.5-91.5 22.8-23.1 11.4-40.6 24.1-60 43.6-6.1 6-14.5 13.7-18.8 16.9-43.2 32.5-71.5 75.7-80.6 123-10.9 56.4 2.1 111.7 38.4 164.1 25 36 78 87.7 154.7 151.1 45.1 37.3 60 50.5 80.3 70.8 21.5 21.6 27.5 29.3 35 44.8 5.5 11.4 7.5 18.8 8.2 29.8.6 9.6-.6 17.3-3.9 25.7-2.1 5.3-2.7 5.9-7.3 7.6-13.6 5.1-37.4 7.3-52.1 4.6-40.1-7.1-76.3-37.6-108.8-91.6-2.1-3.5-4.3-6.3-5-6.3-.7 0-3.2 1.3-5.7 2.9-7.4 4.8-22.9 14.1-23.3 14.1-.3 0-5.4 3.1-11.3 6.8-5.9 3.7-13.5 8.4-16.8 10.2-3.3 1.9-6.7 3.9-7.7 4.5-.9.5-5.6 3.4-10.5 6.3-4.8 2.9-15.3 9.4-23.3 14.3s-15.2 9.2-16 9.6c-2.6 1.2-14.4 8.6-18 11.4-1.9 1.5-13.7 8.8-26.2 16.4C9.8 712.3 0 718.8 0 719.6c0 .8 3 7 6.6 13.7 20.7 37.9 39.6 64 64.4 88.7 21.9 21.8 40.1 35 66.5 48 24.7 12.2 48.4 19.6 77.5 24.1 17.2 2.7 62.8 3.8 81.9 1.9 63.6-6.1 116.1-30.2 156.1-71.6 4.7-4.8 12.8-12 18.1-16 40.2-30.4 68.4-72.2 80.4-118.9 6.1-24 7-31.8 7-64 0-25.9-.3-30.4-2.3-41.8-8.4-46.7-26.8-82.3-64.7-125.7-19.2-21.8-40.1-40.9-109.5-99.5-63.7-53.9-103.4-89.4-120.8-108.1-15.2-16.3-22.3-31.1-22.3-46.5 0-4.3.2-8.3.5-8.8 2-3.2 26.6-4.1 39.4-1.5 32.2 6.5 64.9 31.2 97.2 73.1 3.9 5.1 7 8.3 8.2 8.3 1 0 28.3-23.4 61.5-52.8 32.8-29 68.4-60.5 79.2-70 10.8-9.5 19.7-18.1 19.9-19.1.2-1-3.8-6.2-10-13.1-39.9-44.6-75.4-74-110.6-91.8C392.8 12.3 358.3 2.7 328 1.4c-6.3-.2-13.5-.6-16-.7-2.5-.2-11 0-19 .4zm57 5.8c67.1 12.3 118.8 45 181.3 114.4 5.3 6 9.7 11.2 9.6 11.5 0 .9-40.9 36.7-41.8 36.7-.3 0-4.9-4.7-10.1-10.5C428 91.4 377.7 58.6 315.3 45.5c-31.3-6.5-76.1-6.2-108.2.6-15.2 3.2-36.2 10.7-51 18l-13.6 6.7 6.5-6C185.1 31.4 226.2 12 274.6 5.6c16.7-2.3 60.1-1.5 75.4 1.3zm-45 40c63.9 11.7 114.5 42.4 172.3 104.7 8.2 8.7 15.7 17.1 16.8 18.6l1.9 2.6-33.3 29.5-33.2 29.5-1.8-2.4c-11-14.3-20.2-25-30.7-35.5-19.1-19.2-35.1-30.4-54-38-13.1-5.2-22.4-6.9-37.7-6.9-19.1 0-32.4 3.8-45.6 12.9-7.4 5.1-17.2 16.4-20.3 23.6-1.6 3.6-3.4 6.5-4.2 6.5-2.3 0-11.4 4.2-17.9 8.2-8.4 5.3-18.8 16.6-22.5 24.4-7.4 15.8-4.9 35.6 6.5 53.2 11.2 17 49.4 52.4 133.7 123.7 69.3 58.5 89.7 77.1 108.5 98.5 37.9 43.4 56.3 79 64.7 125.7 2 11.3 2.3 16.1 2.3 39.8 0 30-1 38.4-7 62-5.7 22.3-15 43.4-27.5 62.5-10.9 16.6-16.1 22.3-25.2 27.8-32.8 19.7-69 31.2-110.9 35.2-18.8 1.8-60.6.8-77.9-1.9-29-4.5-52.8-11.9-77.5-24.1-38.5-19-68-44.4-97.2-83.6-11.8-15.9-34.5-52.7-33.2-53.8 2.2-1.7 75.9-45.6 76.6-45.6.5 0 2.9 3.4 5.2 7.6 23.2 40.7 52.7 72.1 81.7 86.9 16.3 8.3 30 11.5 50 11.5 25.2 0 45.1-6.2 62.3-19.4 7.4-5.7 19.2-18.2 22.1-23.5 1.9-3.2 4-5 9.8-8.1 19.7-10.7 35.6-28.1 42.4-46.6 1.8-4.9 2.1-8.2 2.2-19.9.1-16.5-1.1-22.2-7.9-36.3C391 580.6 385 573 363 550.9c-20.8-20.8-35.5-33.8-80.8-71.3-76.6-63.3-128.8-114.2-153.7-150.1C98 285.5 83.6 238.7 87 194c2.9-39.6 15-71.7 38.7-103.2 6.4-8.5 8.4-10.3 15.8-14.8 25.9-15.7 56.5-26.2 88.1-30.4 16.7-2.3 60.1-1.5 75.4 1.3zm-190.7 53.8C82.2 149.2 74.5 213 94 270c7 20.8 17.8 41.7 31.5 61.5 25 36 78 87.7 154.7 151.1 45.1 37.3 60 50.5 80.3 70.8 21.5 21.6 27.5 29.2 35 44.8 6.5 13.6 8 20 7.9 34.3-.1 13.4-1.5 18.6-8 30.2-6 10.8-20.1 24.4-32.6 31.7-5.3 3.1-5.5 2.8-3.1-3.5 1.2-3.3 1.7-7.9 1.7-18.4.1-16.5-1.2-22.2-7.9-36.3C346 620.6 340 613 318 590.9c-20.8-20.8-35.5-33.8-80.8-71.3-76.6-63.3-128.8-114.2-153.7-150.1C53 325.5 38.6 278.7 42 234c3.4-45.4 19-81.7 50.4-117.4C98.2 110 118.8 91 120.1 91c.4 0-2.3 4.4-5.8 9.7zm209.5 52.9c21.2 4.3 44.5 17.6 65.9 37.8 12.9 12.1 36.8 40.6 36 42.9-.2.6-9.5 9.3-20.8 19.3l-20.4 18.2-1.8-2.4c-10.5-13.7-20.2-25-30.7-35.5-19.1-19.2-35.1-30.4-54-38-14.5-5.8-23.4-7.2-41.5-6.7l-15.3.4 2.4-4.7c2.8-5.7 12.1-15.9 18.1-20 7.1-4.9 15.8-8.8 24-10.8 9.9-2.5 27.4-2.7 38.1-.5zm-88.1 50.7c.2 17.2 6.9 31.4 23 48.6 18.2 19.5 57.3 54.5 121.3 108.6 69.3 58.5 89.7 77.1 108.5 98.5 37.9 43.4 56.3 79 64.7 125.7 2 11.3 2.3 16.1 2.3 39.8 0 30-1 38.4-7 62-11.2 43.6-36.2 82.4-72.4 112.4l-5.3 4.5 7.2-11c13.4-20.3 22.6-40.9 28.5-63.9 6.1-24 7-31.8 7-64 0-25.9-.3-30.4-2.3-41.8-8.4-46.7-26.8-82.3-64.7-125.7-19.2-21.8-40.1-40.9-109.5-99.5-86-72.7-122.8-106.9-133.5-124-8.6-13.8-12-31.3-8.2-42.1 5.4-14.9 18.1-27.7 35.1-35.1 2.8-1.2 5.1-2.2 5.2-2.3 0 0 .1 4.2.1 9.3zM191.9 629c30 46.2 64.4 73.3 101.5 79.9 10 1.8 31.9 1.3 42.1-.9 5-1 10.1-2.2 11.4-2.6 2.1-.6 2.2-.5 1.2 1.5-1.9 3.5-14.1 16-20.2 20.6-11.6 9-25.3 15-41.2 18-9.2 1.7-27.7 2-36.3.4-41-7.3-77.7-38.8-110.8-95.2-3.2-5.4-5.6-10-5.4-10.1.9-.8 20-12.6 20.3-12.6.5 0 20.4-12.1 23.5-14.3 3-2.1 1.5-3.8 13.9 15.3zM56.6 702.2c23.3 41.6 51.1 75.7 81.2 99.7 27.5 21.9 61.6 38.5 96.7 47.2 22.5 5.5 36.4 7.1 66.9 7.6 30.7.6 44.5-.3 66.6-4.3 25.5-4.6 47.4-11.9 69.8-23.3l11.7-6-7.5 7.1c-37.7 35.6-88.1 57.2-147.1 62.8-18.8 1.8-60.6.8-77.9-1.9-46.5-7.2-86.8-24.4-122.2-52.1-18-14.1-40.2-38.2-57.5-62.5-13-18.3-34.2-55-32.6-56.6 1.1-1.1 44.6-27.7 45.4-27.8.4-.1 3.3 4.5 6.5 10.1z"/></svg>